<svg width="80" height="76" viewBox="0 0 80 76" fill="none" xmlns="http://www.w3.org/2000/svg">
<g clip-path="url(#clip0_29_361)">
<g clip-path="url(#clip1_29_361)">
<path d="M40 75.2736C62.0914 75.2736 80 58.4635 80 37.7274C80 16.9912 62.0914 0.181152 40 0.181152C17.9086 0.181152 0 16.9912 0 37.7274C0 58.4635 17.9086 75.2736 40 75.2736Z" fill="#FFD500"/>
<path d="M35.6608 43.351H35.7473H35.8337H35.9202H36.0066C39.8199 43.2641 42.9398 41.9566 45.1928 39.342C50.2192 33.5902 49.3524 23.8299 49.2659 22.9584C48.746 11.8037 40.5996 9.10231 35.7466 9.1893C30.98 9.01484 22.8336 11.7162 22.2273 22.9584C22.1408 23.8302 21.274 33.6773 26.3005 39.342C28.7277 41.9565 31.8476 43.264 35.6608 43.351ZM25.6077 23.2202V23.1333C26.0412 13.1986 33.3208 12.5014 35.4873 12.5014H35.8337H35.9202C37.5669 12.4145 45.6263 12.6759 46.0598 23.1333V23.2202C46.0598 23.3071 47.0131 32.3707 42.7664 37.1639C41.1197 39.0812 38.8667 40.0398 35.8332 40.0398H35.7468H35.6603C32.7139 40.0398 30.4602 39.0811 28.8142 37.1639C24.6545 32.4577 25.6077 23.3072 25.6077 23.2202ZM45.8869 43.8739C45.9734 43.8739 50.9134 47.3595 56.8933 48.9284C61.14 49.974 63.3066 54.0699 62.8733 60.0832C62.7868 61.1287 62.5269 64.7019 62.2663 65.6605C62.0928 66.3578 61.3994 66.8806 60.7067 66.8806C60.5332 66.8806 60.4467 66.8806 60.2733 66.7936C59.4064 66.5322 58.8865 65.6605 59.1464 64.7894C59.2329 64.3536 59.4928 61.8266 59.5799 59.8217C59.7534 57.2948 59.4934 52.9375 56.0265 52.0657C49.4403 50.4098 44.2403 46.6628 43.9803 46.5753C43.2869 46.0525 43.1134 45.007 43.5469 44.3097C44.1538 43.5255 45.107 43.3511 45.8869 43.8739ZM15.0348 48.8416C21.0147 47.3602 25.9542 43.8739 26.0412 43.7871C26.7346 43.2643 27.7743 43.4388 28.2943 44.2229C28.8142 44.9202 28.6407 45.9657 27.8608 46.4886C27.6009 46.6631 22.4009 50.3232 15.8146 51.979C12.3484 52.8507 12.0884 57.2081 12.2613 59.735C12.4348 61.7392 12.6077 64.1793 12.7812 64.7027C13.0411 65.5744 12.5212 66.4454 11.6544 66.7069C11.4809 66.7069 11.3944 66.7938 11.2209 66.7938C10.5275 66.7938 9.83417 66.271 9.6613 65.5738C9.40135 64.4407 9.14141 60.6937 9.05436 59.9964C8.62152 53.9832 10.788 49.9748 15.0348 48.8416ZM40.1672 44.7457C39.3003 44.7457 38.5204 45.4429 38.5204 46.4016C38.5204 47.1858 38.174 47.883 37.6535 48.3189C37.5671 48.4058 37.48 48.4933 37.3936 48.4933C36.9601 48.7547 36.4402 48.9292 35.9204 48.9292C34.4472 48.9292 33.3203 47.7961 33.3203 46.3146C33.3203 45.4429 32.6269 44.6587 31.6736 44.6587C30.8067 44.6587 30.0268 45.3559 30.0268 46.3146C30.0268 47.7091 30.5467 49.016 31.3265 50.0616L30.0268 79.7786C30.0268 80.3013 30.2003 80.7372 30.5467 81.0855L34.6199 84.7457C34.9663 85.0071 35.3133 85.1815 35.7467 85.1815C36.0931 85.1815 36.5265 85.0071 36.8735 84.7457L40.9467 80.9987C41.2931 80.6504 41.4666 80.2145 41.4666 79.6917L40.1668 50.3234C41.1202 49.2778 41.7265 47.8833 41.7265 46.3143C41.8135 45.5295 41.0341 44.7457 40.1672 44.7457ZM35.834 81.3472L33.4074 79.1686L34.5342 52.066C34.9677 52.1529 35.4011 52.2405 35.921 52.2405C36.2674 52.2405 36.7008 52.2405 37.0478 52.1535L38.261 79.0818L35.834 81.3472ZM61.9197 40.5627L71.4529 30.9762H68.2465C67.3797 30.9762 66.5998 30.279 66.5998 29.3203C66.5998 28.4486 67.2932 27.6644 68.2465 27.6644H75.3532C76.2201 27.6644 77 28.3616 77 29.3203V36.4666C77 37.3383 76.3066 38.1226 75.3532 38.1226C74.3999 38.1226 73.7065 37.4253 73.7065 36.4666V33.3293L63.1336 43.9612C62.7872 44.3095 62.4402 44.3971 62.0068 44.3971C61.5733 44.3971 61.1399 44.2226 60.8799 43.9612L55.3335 38.3838L51.1738 42.5667C50.5669 43.177 49.527 43.177 48.9207 42.5667C48.3138 41.9564 48.3138 40.9108 48.9207 40.3011L54.2937 34.8981C54.9006 34.2878 55.9404 34.2878 56.5468 34.8981L61.9197 40.5627Z" fill="black"/>
</g>
</g>
<defs>
<clipPath id="clip0_29_361">
<rect width="80" height="75" fill="white" transform="translate(0 0.380005)"/>
</clipPath>
<clipPath id="clip1_29_361">
<rect width="80" height="75" fill="white" transform="translate(0 0.380005)"/>
</clipPath>
</defs>
</svg>
