<svg width="80" height="82" viewBox="0 0 80 82" fill="none" xmlns="http://www.w3.org/2000/svg">
<g clip-path="url(#clip0_29_331)">
<g clip-path="url(#clip1_29_331)">
<g clip-path="url(#clip2_29_331)">
<path d="M40 81.1913C62.0914 81.1913 80 63.2827 80 41.1913C80 19.0999 62.0914 1.19128 40 1.19128C17.9086 1.19128 0 19.0999 0 41.1913C0 63.2827 17.9086 81.1913 40 81.1913Z" fill="#FFD500"/>
<path d="M56.4168 30.6898C56.4168 21.6135 49.0331 14.2295 39.9564 14.2295C30.8798 14.2295 23.4961 21.6132 23.4961 30.6898C23.4961 36.9992 27.0959 42.7229 32.7306 45.4752L28.6082 62.9186C28.5451 63.1855 28.6071 63.4671 28.7777 63.6816C28.9477 63.8973 29.2068 64.0223 29.481 64.0223H50.4315C50.7058 64.0223 50.9648 63.8973 51.1348 63.6816C51.3055 63.4671 51.3674 63.1861 51.3043 62.9186L47.182 45.4752C52.8167 42.7222 56.4168 36.9985 56.4168 30.6898ZM45.7835 44.1464C45.3849 44.3187 45.1675 44.7523 45.2677 45.1757L49.2983 62.23L30.6152 62.2294L34.6457 45.1751C34.7454 44.7523 34.5286 44.3187 34.1299 44.1458C28.7604 41.817 25.2907 36.5352 25.2907 30.6893C25.2907 22.6022 31.8704 16.0236 39.9564 16.0236C48.0434 16.0236 54.6221 22.6027 54.6221 30.6893C54.6221 36.5358 51.1536 41.8175 45.7835 44.1464Z" fill="black"/>
</g>
</g>
</g>
<defs>
<clipPath id="clip0_29_331">
<rect width="80" height="81" fill="white" transform="translate(0 0.390015)"/>
</clipPath>
<clipPath id="clip1_29_331">
<rect width="80" height="81" fill="white" transform="translate(0 0.390015)"/>
</clipPath>
<clipPath id="clip2_29_331">
<rect width="80" height="81" fill="white" transform="translate(0 0.390015)"/>
</clipPath>
</defs>
</svg>
