<svg width="80" height="82" viewBox="0 0 80 82" fill="none" xmlns="http://www.w3.org/2000/svg">
<g clip-path="url(#clip0_29_345)">
<g clip-path="url(#clip1_29_345)">
<g clip-path="url(#clip2_29_345)">
<path d="M40 81.1913C62.0914 81.1913 80 63.2827 80 41.1913C80 19.0999 62.0914 1.19128 40 1.19128C17.9086 1.19128 0 19.0999 0 41.1913C0 63.2827 17.9086 81.1913 40 81.1913Z" fill="#FFD500"/>
<path d="M39.7378 13.7402C36.0951 13.7448 32.6028 15.1935 30.027 17.7694C27.4511 20.3453 26.002 23.8379 25.9978 27.4807V33.726C23.6796 33.7285 21.4571 34.6507 19.8176 36.2897C18.1785 37.9291 17.2564 40.1516 17.2539 42.4699V59.957C17.2564 62.2752 18.1786 64.4977 19.8176 66.1367C21.457 67.7761 23.6795 68.698 25.9978 68.7009H53.4774C55.7956 68.6979 58.018 67.7762 59.6575 66.1367C61.2966 64.4977 62.2188 62.2753 62.2212 59.957V42.4699C62.2187 40.1517 61.2965 37.9292 59.6575 36.2897C58.0181 34.6507 55.7957 33.7285 53.4774 33.726V27.4807C53.4732 23.8379 52.024 20.3452 49.4481 17.7694C46.8722 15.1935 43.3805 13.7448 39.7378 13.7402ZM59.7238 42.4703V59.9574C59.7217 61.6132 59.063 63.2008 57.8924 64.3714C56.7214 65.5425 55.1338 66.2012 53.4781 66.2028H25.9985C24.3428 66.2011 22.7552 65.5424 21.5842 64.3714C20.4135 63.2008 19.7549 61.6132 19.7528 59.9574V42.4703C19.7549 40.8146 20.4136 39.227 21.5842 38.056C22.7553 36.8853 24.3429 36.2267 25.9985 36.2246H53.4781C55.1339 36.2267 56.7215 36.8854 57.8924 38.056C59.0631 39.2271 59.7218 40.8147 59.7238 42.4703ZM28.4958 33.7265V27.4811C28.4958 23.4644 30.6385 19.7535 34.1168 17.7451C37.5952 15.7368 41.8804 15.7368 45.3588 17.7451C48.8371 19.7535 50.9797 23.4644 50.9797 27.4811V33.7265H28.4958Z" fill="black"/>
<path d="M39.7355 43.6565C38.0334 43.6523 36.4382 44.4854 35.4692 45.8848C34.5001 47.2841 34.2814 49.0704 34.8841 50.6622C35.4867 52.2539 36.8339 53.4476 38.4863 53.854V56.7097C38.4863 57.3993 39.0459 57.9585 39.7356 57.9585C40.4252 57.9585 40.9848 57.3993 40.9848 56.7097V53.854C42.6373 53.4475 43.9844 52.2539 44.587 50.6622C45.1897 49.0704 44.971 47.2841 44.002 45.8848C43.0329 44.4854 41.4377 43.6522 39.7355 43.6565ZM39.7355 51.5259C39.0233 51.5259 38.3404 51.2427 37.8364 50.7392C37.3329 50.2356 37.0501 49.5527 37.0501 48.8405C37.0501 48.1282 37.3328 47.4448 37.8364 46.9413C38.3404 46.4378 39.0233 46.1546 39.7355 46.1546C40.4477 46.1546 41.1307 46.4378 41.6347 46.9413C42.1382 47.4449 42.4209 48.1283 42.4209 48.8405C42.4205 49.5523 42.1374 50.2352 41.6338 50.7384C41.1303 51.242 40.4477 51.5251 39.7355 51.5259Z" fill="black"/>
</g>
</g>
</g>
<defs>
<clipPath id="clip0_29_345">
<rect width="80" height="81" fill="white" transform="translate(0 0.390015)"/>
</clipPath>
<clipPath id="clip1_29_345">
<rect width="80" height="81" fill="white" transform="translate(0 0.390015)"/>
</clipPath>
<clipPath id="clip2_29_345">
<rect width="80" height="81" fill="white" transform="translate(0 0.390015)"/>
</clipPath>
</defs>
</svg>
