<svg width="80" height="84" viewBox="0 0 80 84" fill="none" xmlns="http://www.w3.org/2000/svg">
<g clip-path="url(#clip0_29_338)">
<g clip-path="url(#clip1_29_338)">
<path d="M40 82.8669C62.0914 82.8669 80 64.5832 80 42.0291C80 19.475 62.0914 1.19128 40 1.19128C17.9086 1.19128 0 19.475 0 42.0291C0 64.5832 17.9086 82.8669 40 82.8669Z" fill="#FFD500"/>
<path d="M59.7118 36.0727C59.7118 35.5846 59.2933 35.1578 58.8156 35.1578H29.7148C29.2367 35.1578 28.8187 35.585 28.8187 36.0727C28.8187 36.5608 29.1771 36.9876 29.7148 36.9876H58.8753C59.3534 36.9876 59.7118 36.5608 59.7118 36.0727ZM59.7119 43.2713C59.7119 42.7832 59.2934 42.3563 58.8157 42.3563H29.715C29.2369 42.3563 28.8188 42.7836 28.8188 43.2713C28.8188 43.7594 29.1773 44.1862 29.715 44.1862H58.8755C59.3536 44.1253 59.7119 43.7594 59.7119 43.2713ZM59.7121 50.4094C59.7121 49.9213 59.2936 49.4945 58.8159 49.4945L29.7151 49.494C29.237 49.494 28.819 49.9213 28.819 50.409C28.819 50.8971 29.1774 51.3239 29.7151 51.3239H58.8756C59.3537 51.2635 59.7121 50.8971 59.7121 50.4094ZM59.7122 57.5472C59.7122 57.0591 59.2937 56.6323 58.816 56.6323L29.7153 56.6318C29.2372 56.6318 28.8191 57.0591 28.8191 57.5468C28.8191 58.0349 29.1776 58.4617 29.7153 58.4617H58.8758C59.3539 58.4013 59.7122 58.0353 59.7122 57.5472ZM59.7123 64.685C59.7123 64.1969 59.2939 63.7701 58.8162 63.7701L29.7154 63.7696C29.2373 63.7696 28.8193 64.1969 28.8193 64.6846C28.8193 65.1727 29.1777 65.5995 29.7154 65.5995H58.8759C59.354 65.5391 59.7123 65.1731 59.7123 64.685ZM63.6564 67.4911C63.6564 70.8466 60.4299 70.9074 60.3103 70.9074H28.2815C24.9948 70.9074 24.9353 67.6132 24.9353 67.4911V24.8473C24.9353 21.4918 28.1619 21.431 28.2815 21.431H53.4982V27.0437C53.4982 28.9961 54.7532 31.8022 58.1591 31.8022H63.6566L63.6564 67.4911ZM62.7603 30.4599H58.219C54.9324 30.4599 54.8728 27.1658 54.8728 27.0437V22.4073L62.7603 30.4599ZM59.9518 25.7014L54.6336 20.2718C54.574 20.211 54.4543 20.1497 54.3347 20.0888H54.2751H54.2155H28.2818C26.3694 20.0888 23.6209 21.3702 23.6209 24.8474V67.0031C21.2904 66.4541 21.2309 63.8306 21.2309 63.7089L21.2305 21.0041C21.2305 17.6487 24.457 17.5879 24.5766 17.5879H56.6652C59.9518 17.5879 60.0113 20.882 60.0113 21.0041L60.0118 25.7018L59.9518 25.7014ZM56.1275 16.2453H24.5767C22.6643 16.2453 19.9158 17.5266 19.9158 21.0038V63.1595C17.5854 62.6105 17.5258 59.987 17.5258 59.8653L17.5254 17.2216C17.5254 13.8661 20.752 13.8053 20.8716 13.8053H52.9601C55.1113 13.8053 55.8286 15.2692 56.1275 16.2453ZM65.0309 67.4911V31.131V31.0702V31.0093C65.0309 30.8872 64.9713 30.7655 64.8517 30.7042L61.3262 27.1049V21.0038C61.3262 19.2348 60.2508 16.7942 57.5019 16.3062C57.203 14.4758 55.8287 12.4017 52.9006 12.4017H20.8718C18.9595 12.4017 16.2109 13.6831 16.2109 17.1602V59.804C16.2109 61.573 17.2863 64.0136 20.0353 64.5016C20.3341 66.0877 21.4095 67.9179 23.74 68.284C24.0388 70.1143 25.4131 72.1884 28.3412 72.1884H60.3103C62.2222 72.2492 65.0309 70.9687 65.0309 67.4911Z" fill="black"/>
</g>
</g>
<defs>
<clipPath id="clip0_29_338">
<rect width="80" height="83" fill="white" transform="translate(0 0.390015)"/>
</clipPath>
<clipPath id="clip1_29_338">
<rect width="80" height="83" fill="white" transform="translate(0 0.390015)"/>
</clipPath>
</defs>
</svg>
