<svg width="80" height="82" viewBox="0 0 80 82" fill="none" xmlns="http://www.w3.org/2000/svg">
<g clip-path="url(#clip0_29_367)">
<g clip-path="url(#clip1_29_367)">
<g clip-path="url(#clip2_29_367)">
<path d="M39.5718 81.2004C61.3884 81.2004 79.0742 63.1441 79.0742 40.8706C79.0742 18.597 61.3884 0.540771 39.5718 0.540771C17.7552 0.540771 0.0693359 18.597 0.0693359 40.8706C0.0693359 63.1441 17.7552 81.2004 39.5718 81.2004Z" fill="#FFD500"/>
<path d="M64.9289 48.6569C62.0693 46.0493 58.1745 44.9662 54.4146 45.7326L33.9909 24.8824C34.827 20.6597 33.4557 16.2976 30.3696 13.3599C27.2836 10.4221 22.9255 9.33065 18.8581 10.477C18.5262 10.5692 18.2677 10.8345 18.1789 11.174C18.0907 11.5133 18.1861 11.8751 18.4293 12.1234L23.4085 17.207C23.9323 17.7422 24.2263 18.468 24.2263 19.2246C24.2263 19.9806 23.9323 20.7063 23.4085 21.2417L20.8631 23.84C20.3307 24.3586 19.6232 24.6479 18.8875 24.6479C18.1511 24.6479 17.4437 24.3586 16.9113 23.84L11.932 18.757C11.6888 18.5087 11.3349 18.4112 11.0025 18.5013C10.6701 18.5919 10.4101 18.8558 10.3195 19.1947C9.75587 21.3112 9.74868 23.5418 10.2984 25.6621C10.848 27.782 11.9358 29.7168 13.4515 31.271C16.3223 34.2244 20.4582 35.501 24.4508 34.6666L44.8303 55.4729C44.0087 59.6985 45.3866 64.0573 48.4727 66.9949C51.5588 69.9326 55.914 71.0319 59.9852 69.8998C60.3171 69.8076 60.5757 69.5423 60.6639 69.2029C60.7526 68.8635 60.6572 68.5017 60.414 68.2534L55.4352 63.1703C54.9124 62.6351 54.6184 61.9093 54.6184 61.1532C54.6184 60.3973 54.9124 59.672 55.4352 59.1362L57.9803 56.5379C58.5127 56.0193 59.2202 55.7299 59.956 55.7299C60.6917 55.7299 61.3993 56.0193 61.9317 56.5379L66.9109 61.6208C67.1541 61.8691 67.5086 61.9666 67.841 61.876C68.1734 61.7859 68.4338 61.522 68.524 61.1831C69.1245 58.9605 69.1057 56.6108 68.4712 54.3984C67.8361 52.1855 66.6092 50.1975 64.9289 48.6569ZM66.9794 58.9053L63.2957 55.1449C62.4103 54.2405 61.2088 53.7321 59.956 53.7321C58.7032 53.7321 57.5021 54.2404 56.6162 55.1449L54.0711 57.7433C53.1866 58.6488 52.6902 59.8749 52.6902 61.153C52.6902 62.4315 53.1866 63.6578 54.0711 64.5627L57.7511 68.3207C54.4957 68.6454 51.2839 67.3613 49.1107 64.8655C46.937 62.3695 46.0636 58.9632 46.7604 55.7004L48.8847 53.531C49.2613 53.1461 49.2613 52.5227 48.8847 52.1379C48.5078 51.7534 47.8972 51.7534 47.5207 52.1379L45.9071 53.7857L25.4405 32.8917C25.2021 32.6479 24.8558 32.5494 24.5282 32.6317C21.3007 33.4515 17.8847 32.6199 15.367 30.4017C12.8493 28.1834 11.5442 24.8549 11.8665 21.4755L15.5473 25.233C16.4333 26.1375 17.6347 26.6458 18.8877 26.6458C20.14 26.6458 21.3415 26.1375 22.2274 25.233L24.7728 22.6346C25.6587 21.7302 26.1562 20.5035 26.1562 19.225C26.1562 17.9459 25.6583 16.7192 24.7723 15.8152L21.0891 12.0539C24.3507 11.7243 27.5687 13.0137 29.7401 15.5198C31.9114 18.0265 32.7715 21.4452 32.052 24.71L29.9587 26.8466C29.5822 27.2309 29.5822 27.8544 29.9587 28.2392C30.3353 28.6236 30.9463 28.6236 31.3228 28.2392L32.9369 26.5918L53.4219 47.5058C53.6598 47.7473 54.0028 47.8462 54.3289 47.7673C57.5527 46.9417 60.9686 47.7688 63.4853 49.9848C66.0025 52.2012 67.3056 55.5284 66.9794 58.9053ZM37.9212 50.0899C38.102 50.2745 38.2042 50.5247 38.2042 50.7862C38.2042 51.0472 38.1025 51.298 37.9217 51.4825L34.0135 55.4731C34.8347 59.6987 33.4567 64.057 30.3706 66.9946C27.2845 69.9328 22.9294 71.0316 18.8581 69.8995C18.5262 69.8073 18.2677 69.5415 18.1794 69.2022C18.0912 68.8627 18.1866 68.5014 18.4298 68.2531L23.409 63.17C23.9318 62.6348 24.2254 61.909 24.2254 61.1529C24.2254 60.397 23.9318 59.6717 23.409 59.1359L20.8636 56.5376C20.3312 56.019 19.6237 55.7296 18.888 55.7296C18.1516 55.7296 17.4441 56.019 16.9118 56.5376L11.9325 61.6206C11.6893 61.8688 11.3353 61.9663 11.003 61.8757C10.6706 61.7856 10.4105 61.5217 10.3199 61.1828C9.19707 57.0302 10.2662 52.5803 13.1436 49.4296C16.0211 46.2789 20.2937 44.8794 24.4297 45.7325L28.3595 41.7204C28.7359 41.3361 29.347 41.3361 29.7235 41.7204C30.1 42.1053 30.1 42.7287 29.7235 43.1131L25.4216 47.5051C25.1842 47.7465 24.8412 47.8455 24.5146 47.7666C21.2909 46.9405 17.8748 47.7675 15.3581 49.984C12.8409 52.1999 11.5377 55.5284 11.8644 58.9053L15.5481 55.1449C16.4335 54.2404 17.635 53.732 18.8879 53.732C20.1402 53.732 21.3417 54.2403 22.2276 55.1449L24.773 57.7433C25.657 58.6487 26.1535 59.8749 26.1535 61.1529C26.1535 62.4315 25.657 63.6577 24.773 64.5627L21.0918 68.3207C24.3477 68.6458 27.5593 67.3618 29.7332 64.8658C31.9069 62.3698 32.7803 58.963 32.0835 55.6997L29.9591 53.5304C29.5826 53.1454 29.5826 52.5225 29.9591 52.1382C30.3356 51.7533 30.9467 51.7533 31.3231 52.1377L32.9372 53.7855L36.5575 50.0894C36.7383 49.9048 36.9834 49.8015 37.2396 49.8015C37.4953 49.8015 37.7399 49.9053 37.9212 50.0899ZM40.9223 30.2877C40.7415 30.1031 40.6398 29.8524 40.6398 29.5914C40.6398 29.3304 40.7415 29.0796 40.9223 28.8951L44.8526 24.8825C44.017 20.6603 45.3879 16.2977 48.4739 13.3599C51.5599 10.4222 55.918 9.33072 59.9854 10.4771C60.3173 10.5692 60.5759 10.8346 60.6642 11.174C60.7528 11.5134 60.6574 11.8752 60.4142 12.1235L55.4354 17.2071C54.9112 17.7422 54.6172 18.4681 54.6172 19.2247C54.6172 19.9812 54.9112 20.7064 55.4354 21.2417L57.9806 23.84C58.513 24.3586 59.2204 24.648 59.9562 24.648C60.692 24.648 61.3995 24.3586 61.9319 23.84L66.9112 18.757C67.1543 18.5088 67.5088 18.4113 67.8412 18.5014C68.1736 18.592 68.434 18.8559 68.5242 19.1948C69.0878 21.3113 69.095 23.5419 68.5448 25.6622C67.9951 27.7821 66.9078 29.7169 65.3921 31.2711C62.5214 34.2249 58.3855 35.5015 54.3924 34.6667L50.4842 38.6572C50.3034 38.8418 50.0583 38.9462 49.8021 38.9462C49.546 38.9465 49.3004 38.8428 49.1196 38.6577C48.9383 38.473 48.8365 38.2224 48.837 37.9609C48.837 37.6994 48.9392 37.4486 49.1206 37.264L53.4033 32.8915C53.6417 32.6472 53.9876 32.5482 54.3156 32.6315C57.5427 33.4513 60.9588 32.6197 63.4763 30.4015C65.994 28.1831 67.2997 24.8546 66.9769 21.4753L63.2959 25.2328C62.4106 26.1372 61.209 26.6456 59.9562 26.6456C58.7034 26.6456 57.5024 26.1373 56.6164 25.2328L54.0714 22.6344C53.1855 21.7304 52.688 20.5033 52.688 19.2247C52.688 17.9457 53.1855 16.719 54.0714 15.815L57.7546 12.0542C54.493 11.7246 51.2749 13.014 49.1037 15.5201C46.9327 18.0268 46.0728 21.4455 46.7923 24.7103L48.885 26.8464C49.2615 27.2307 49.2615 27.8542 48.885 28.239C48.508 28.6234 47.8974 28.6234 47.5209 28.239L45.9068 26.5916L42.2865 30.2877C42.1057 30.4724 41.8606 30.5762 41.6044 30.5762C41.3488 30.5762 41.1031 30.4724 40.9223 30.2877Z" fill="black"/>
</g>
</g>
</g>
<defs>
<clipPath id="clip0_29_367">
<rect width="80" height="80.98" fill="white" transform="translate(0 0.390015)"/>
</clipPath>
<clipPath id="clip1_29_367">
<rect width="80" height="80.98" fill="white" transform="translate(0 0.390015)"/>
</clipPath>
<clipPath id="clip2_29_367">
<rect width="79.9924" height="80.98" fill="white" transform="translate(0.00390625 0.390015)"/>
</clipPath>
</defs>
</svg>
