<svg width="80" height="84" viewBox="0 0 80 84" fill="none" xmlns="http://www.w3.org/2000/svg">
<g clip-path="url(#clip0_29_353)">
<g clip-path="url(#clip1_29_353)">
<g clip-path="url(#clip2_29_353)">
<path d="M40 82.5427C62.0914 82.5427 80 64.259 80 41.7049C80 19.1508 62.0914 0.867065 40 0.867065C17.9086 0.867065 0 19.1508 0 41.7049C0 64.259 17.9086 82.5427 40 82.5427Z" fill="#FFD500"/>
<path d="M40.1933 15.7394C27.2194 15.7394 16.6643 26.5151 16.6643 39.7613C16.6643 49.515 26.5631 58.2153 26.9848 58.5801C28.6219 59.9997 30.0055 63.0525 30.0055 65.2468V74.0779C30.0055 77.2318 32.5184 79.7974 35.6076 79.7974H44.7807C47.8699 79.7974 50.3828 77.2318 50.3828 74.0779V65.2468C50.3828 63.0541 51.7654 60.0007 53.4035 58.5801C53.8237 58.2144 63.7225 49.5146 63.7225 39.7613C63.7225 26.5156 53.1678 15.7394 40.1933 15.7394ZM48.1403 71.7905H32.2468V68.3588H48.1429V71.7905H48.1403ZM44.779 77.5099H35.6059C33.7527 77.5099 32.2447 75.9703 32.2447 74.0783H48.1407C48.1407 75.9703 46.6337 77.5099 44.779 77.5099ZM51.9513 56.8374C49.8144 58.6907 48.1408 62.3854 48.1408 65.2471L48.1403 66.0708H32.2469V65.2471C32.2469 62.3853 30.5727 58.6901 28.4364 56.8374C28.3408 56.7537 18.9057 48.4685 18.9057 39.7613C18.9057 27.7769 28.4553 18.0272 40.1938 18.0272C51.9324 18.0272 61.482 27.7769 61.482 39.7613C61.482 48.4514 52.0463 56.7551 51.9513 56.8374ZM40.1933 20.2196C30.2575 20.2196 22.173 28.4715 22.173 38.6174C22.173 48.7633 30.2571 57.0152 40.1933 57.0152C50.1295 57.0152 58.2137 48.7617 58.2137 38.6174C58.2137 28.473 50.1311 20.2196 40.1933 20.2196ZM40.1933 54.7261C31.493 54.7261 24.4138 47.5002 24.4138 38.6161C24.4138 29.732 31.4925 22.5061 40.1933 22.5061C48.8941 22.5061 55.9728 29.733 55.9728 38.6161C55.9728 47.4991 48.8952 54.7261 40.1933 54.7261ZM51.1375 32.4861L39.9332 46.2129C39.7207 46.4733 39.4055 46.6245 39.0729 46.6245C38.7403 46.6245 38.4252 46.4733 38.2126 46.2129L32.6104 39.3495C32.2138 38.8644 32.2788 38.1428 32.754 37.7389C33.2292 37.3339 33.9349 37.3993 34.3315 37.8854L39.0728 43.6938L49.4168 31.0215C49.8134 30.5364 50.5192 30.4715 50.9943 30.875C51.469 31.2789 51.5341 32.001 51.1375 32.4861ZM64.05 23.4115C63.6119 22.9642 63.6119 22.2411 64.05 21.7942L69.6522 16.0748C70.0904 15.6274 70.7986 15.6274 71.2363 16.0748C71.6744 16.5221 71.6744 17.2452 71.2363 17.692L65.6341 23.4115C65.416 23.6342 65.1289 23.7465 64.8423 23.7465C64.5557 23.7465 64.2686 23.6342 64.05 23.4115ZM9.14894 17.692C8.71077 17.2447 8.71077 16.5216 9.14894 16.0748C9.58711 15.6274 10.2954 15.6274 10.733 16.0748L16.3352 21.7942C16.7734 22.2416 16.7734 22.9647 16.3352 23.4115C16.1171 23.6342 15.83 23.7465 15.5434 23.7465C15.2568 23.7465 14.9697 23.6342 14.7511 23.4115L9.14894 17.692ZM16.3357 51.5357C16.7739 51.9831 16.7739 52.7062 16.3357 53.153L10.7335 58.8725C10.515 59.0957 10.2279 59.208 9.94125 59.208C9.65463 59.208 9.36752 59.0957 9.14894 58.873C8.71077 58.4257 8.71077 57.7026 9.14894 57.2557L14.7511 51.5362C15.1893 51.0884 15.8975 51.0884 16.3357 51.5357ZM71.2368 57.2552C71.675 57.7026 71.675 58.4257 71.2368 58.8725C71.0182 59.0957 70.7311 59.208 70.4445 59.208C70.1579 59.208 69.8708 59.0957 69.6522 58.873L64.05 53.1535C63.6119 52.7062 63.6119 51.9831 64.05 51.5362C64.4882 51.0889 65.1965 51.0889 65.6341 51.5362L71.2368 57.2552ZM71.5649 38.6182C71.5649 39.2494 71.0627 39.7621 70.4445 39.7621H68.2036C67.5854 39.7621 67.0832 39.2494 67.0832 38.6182C67.0832 37.987 67.5854 37.4743 68.2036 37.4743H70.4445C71.0627 37.4743 71.5649 37.987 71.5649 38.6182ZM12.1821 37.4743C12.8003 37.4743 13.3025 37.987 13.3025 38.6182C13.3025 39.2494 12.8003 39.7621 12.1821 39.7621H9.94125C9.32301 39.7621 8.82082 39.2494 8.82082 38.6182C8.82082 37.987 9.32301 37.4743 9.94125 37.4743H12.1821Z" fill="black"/>
</g>
</g>
</g>
<defs>
<clipPath id="clip0_29_353">
<rect width="80" height="83" fill="white" transform="translate(0 0.390015)"/>
</clipPath>
<clipPath id="clip1_29_353">
<rect width="80" height="83" fill="white" transform="translate(0 0.390015)"/>
</clipPath>
<clipPath id="clip2_29_353">
<rect width="80" height="83" fill="white" transform="translate(0 0.390015)"/>
</clipPath>
</defs>
</svg>
